<?xml version="1.0" standalone="no"?>
<svg xmlns:xlink="http://www.w3.org/1999/xlink" id="wave" style="transform:rotate(180deg); transition: 0.3s" viewBox="0 0 1440 100" version="1.1" xmlns="http://www.w3.org/2000/svg"><defs><linearGradient id="sw-gradient-0" x1="0" x2="0" y1="1" y2="0"><stop stop-color="rgba(255, 230, 242, 1)" offset="0%"/><stop stop-color="rgba(255, 230, 242, 1)" offset="100%"/></linearGradient></defs><path style="transform:translate(0, 0px); opacity:1" fill="url(#sw-gradient-0)" d="M0,70L34.3,63.3C68.6,57,137,43,206,31.7C274.3,20,343,10,411,6.7C480,3,549,7,617,20C685.7,33,754,57,823,70C891.4,83,960,87,1029,85C1097.1,83,1166,77,1234,75C1302.9,73,1371,77,1440,73.3C1508.6,70,1577,60,1646,58.3C1714.3,57,1783,63,1851,63.3C1920,63,1989,57,2057,51.7C2125.7,47,2194,43,2263,43.3C2331.4,43,2400,47,2469,43.3C2537.1,40,2606,30,2674,25C2742.9,20,2811,20,2880,31.7C2948.6,43,3017,67,3086,63.3C3154.3,60,3223,30,3291,25C3360,20,3429,40,3497,40C3565.7,40,3634,20,3703,11.7C3771.4,3,3840,7,3909,10C3977.1,13,4046,17,4114,30C4182.9,43,4251,67,4320,73.3C4388.6,80,4457,70,4526,60C4594.3,50,4663,40,4731,43.3C4800,47,4869,63,4903,71.7L4937.1,80L4937.1,100L4902.9,100C4868.6,100,4800,100,4731,100C4662.9,100,4594,100,4526,100C4457.1,100,4389,100,4320,100C4251.4,100,4183,100,4114,100C4045.7,100,3977,100,3909,100C3840,100,3771,100,3703,100C3634.3,100,3566,100,3497,100C3428.6,100,3360,100,3291,100C3222.9,100,3154,100,3086,100C3017.1,100,2949,100,2880,100C2811.4,100,2743,100,2674,100C2605.7,100,2537,100,2469,100C2400,100,2331,100,2263,100C2194.3,100,2126,100,2057,100C1988.6,100,1920,100,1851,100C1782.9,100,1714,100,1646,100C1577.1,100,1509,100,1440,100C1371.4,100,1303,100,1234,100C1165.7,100,1097,100,1029,100C960,100,891,100,823,100C754.3,100,686,100,617,100C548.6,100,480,100,411,100C342.9,100,274,100,206,100C137.1,100,69,100,34,100L0,100Z"/></svg>